<svg width="2167" height="334" viewBox="0 0 2167 334" fill="none" xmlns="http://www.w3.org/2000/svg">
<path d="M0 242.729V218.979H83.2083V249.188C83.1439 253.156 83.9304 257.093 85.5149 260.732C87.0993 264.372 89.445 267.629 92.394 270.286C95.343 272.943 98.827 274.938 102.611 276.135C106.396 277.333 110.393 277.706 114.333 277.229C121.065 278.142 127.894 276.493 133.467 272.607C139.039 268.721 142.947 262.883 144.417 256.25C146.644 248.652 146.455 240.549 143.875 233.063C127.771 192.563 17.7292 174.229 3.75001 111.104C0.903977 97.2369 0.7272 82.9543 3.22916 69.0208C11.8125 18.3333 56.3542 0 111.646 0C155.667 0 216.333 10.25 216.333 78.2083V100.333H139.042V80.9167C139.275 77.0895 138.677 73.2573 137.289 69.6831C135.901 66.109 133.755 62.8778 131 60.2115C128.244 57.5452 124.945 55.507 121.327 54.237C117.709 52.967 113.859 52.4952 110.042 52.8542C103.523 52.1364 96.9735 53.9045 91.7017 57.8053C86.4299 61.706 82.8239 67.4522 81.6042 73.8958C80.7354 79.2759 80.9194 84.7734 82.1458 90.0833C91.25 126.208 208.833 145.646 221.729 210.917C224.952 227.833 225.128 245.189 222.25 262.167C214.729 313.917 168.562 333.333 112.75 333.333C54.1667 333.333 0 312.292 0 242.729ZM1008.17 241.667V217.917H1090.31V247.583C1090.18 251.517 1090.91 255.431 1092.43 259.06C1093.95 262.688 1096.24 265.945 1099.14 268.608C1102.04 271.27 1105.47 273.276 1109.22 274.487C1112.96 275.698 1116.93 276.086 1120.83 275.625C1127.5 276.62 1134.31 275.061 1139.88 271.261C1145.45 267.461 1149.39 261.699 1150.9 255.125C1153.12 247.704 1152.94 239.769 1150.38 232.458C1134.79 192.563 1025.81 174.125 1011.88 111.104C1009.02 97.4207 1008.84 83.3156 1011.33 69.5625C1019.98 19.4167 1064.58 1.08333 1118.75 1.08333C1162.25 1.08333 1222.35 11.875 1222.35 78.75V100.333H1145.6V81.4583C1145.85 77.6783 1145.28 73.8899 1143.93 70.3499C1142.58 66.81 1140.49 63.6014 1137.79 60.9418C1135.09 58.2821 1131.86 56.2337 1128.3 54.9353C1124.74 53.6369 1120.94 53.119 1117.17 53.4167C1110.77 52.568 1104.29 54.228 1099.08 58.0492C1093.88 61.8703 1090.36 67.5563 1089.25 73.9167C1088.37 79.2952 1088.55 84.7932 1089.77 90.1042C1098.35 126.229 1214.77 145.125 1227.75 209.833C1230.97 226.567 1231.15 243.745 1228.27 260.542C1220.75 312.333 1175.13 331.208 1119.94 331.208C1061.88 331.25 1008.17 310.146 1008.17 241.667ZM1302.35 253.021C1301.61 246.207 1301.43 239.343 1301.83 232.5V9.16666H1380.21V239.479C1380.11 243.445 1380.28 247.413 1380.73 251.354C1382.48 257.849 1386.32 263.585 1391.66 267.677C1397 271.768 1403.53 273.985 1410.26 273.985C1416.99 273.985 1423.52 271.768 1428.86 267.677C1434.2 263.585 1438.04 257.849 1439.79 251.354C1440.26 247.414 1440.44 243.445 1440.33 239.479V9.16666H1518.75V232.458C1518.75 238.396 1518.21 249.729 1518.21 252.979C1512.85 311.313 1467.21 330.063 1410.31 330.063C1353.42 330.063 1307.73 311.208 1302.35 252.979V253.021ZM1947.65 249.771C1946.85 242.933 1946.49 236.051 1946.56 229.167V98.1667C1946.56 92.7708 1947.08 83.0625 1947.63 77.6458C1954.6 19.4167 2001.31 1.08333 2056.6 1.08333C2111.38 1.08333 2159.67 19.4167 2165.06 77.6667C2165.71 84.487 2165.88 91.3434 2165.58 98.1875V108.333H2087.21V91.1667C2087.22 87.1841 2086.87 83.2088 2086.15 79.2917C2084.09 72.7155 2079.98 66.9689 2074.43 62.8888C2068.87 58.8087 2062.16 56.6084 2055.27 56.6084C2048.38 56.6084 2041.67 58.8087 2036.11 62.8888C2030.56 66.9689 2026.46 72.7155 2024.4 79.2917C2023.49 84.0966 2023.13 88.9893 2023.33 93.875V236.25C2023.24 240.216 2023.42 244.184 2023.88 248.125C2025.73 255.187 2030.05 261.354 2036.05 265.517C2042.05 269.68 2049.34 271.565 2056.6 270.833C2063.74 271.593 2070.91 269.707 2076.74 265.532C2082.58 261.358 2086.68 255.186 2088.27 248.188C2088.99 244.273 2089.18 240.277 2088.81 236.313V190.938H2057.15V145.625H2166.67V229.167C2166.75 236.016 2166.38 242.864 2165.58 249.667C2160.23 306.292 2111.42 326.25 2056.6 326.25C2001.79 326.25 1953 306.354 1947.65 249.729V249.771ZM855.188 320.375L853.104 32.3542L799.354 320.375H720.979L667.813 32.3542L665.729 320.375H588.375L594.812 9.70833H720.979L760.167 252.438L799.354 9.70833H925.5L932.479 320.375H855.188ZM442.896 320.375L401.021 32.3542L358.063 320.375H274.333L331.25 9.70833H469.229L526.146 320.375H442.896ZM1754.92 317.146L1677.08 58.7917L1681.38 317.125H1605.12V9.70833H1720L1792.92 259.979L1788.73 9.70833H1865.5V317.167L1754.92 317.146Z" fill="black"/>
</svg>
