<svg width="21" height="38" viewBox="0 0 21 38" fill="none" xmlns="http://www.w3.org/2000/svg">
<path fill-rule="evenodd" clip-rule="evenodd" d="M19 3L19 35C19 35.5523 18.5523 36 18 36L3 36C2.44771 36 2 35.5523 2 35L2 3C2 2.44771 2.44772 2 3 2L18 2C18.5523 2 19 2.44771 19 3ZM18 -1.31134e-07C19.6569 -5.87105e-08 21 1.34315 21 3L21 35C21 36.6569 19.6569 38 18 38L3 38C1.34314 38 -1.60232e-06 36.6569 -1.5299e-06 35L-1.31134e-07 3C-5.87108e-08 1.34314 1.34315 -8.59228e-07 3 -7.86805e-07L18 -1.31134e-07ZM7 33L14 33L14 31L7 31L7 33Z" fill="black"/>
</svg>
