<svg width="47" height="38" viewBox="0 0 47 38" fill="none" xmlns="http://www.w3.org/2000/svg">
<path fill-rule="evenodd" clip-rule="evenodd" d="M23 11V9H25H27V7V2V0H25H15H12H2H0V2V21V23V36V38H2H12H15H21H23V36V23V21V14V11ZM21 21V14V9V7H23H25V2H15V21H21ZM21 23H15V36H21V23ZM12 21V2H2V21H12ZM2 23H12V36H2V23Z" fill="black"/>
<path fill-rule="evenodd" clip-rule="evenodd" d="M45 9H23V36H45V9ZM23 7H21V9V36V38H23H45H47V36V9V7H45H23ZM37 11.96H32V10.96H37V11.96ZM41.5 23.436C41.5 27.302 38.366 30.436 34.5 30.436C30.634 30.436 27.5 27.302 27.5 23.436C27.5 19.57 30.634 16.436 34.5 16.436C38.366 16.436 41.5 19.57 41.5 23.436ZM43 23.436C43 28.1304 39.1944 31.936 34.5 31.936C29.8056 31.936 26 28.1304 26 23.436C26 18.7416 29.8056 14.936 34.5 14.936C39.1944 14.936 43 18.7416 43 23.436Z" fill="black"/>
</svg>
